<?xml version="1.0" encoding="utf-8"?>
<!-- Generator: Adobe Adobe Illustrator 24.2.0, SVG Export Plug-In . SVG Version: 6.00 Build 0)  -->
<svg version="1.1" xmlns="http://www.w3.org/2000/svg" xmlns:xlink="http://www.w3.org/1999/xlink" x="0px" y="0px" width="2000px"
	 height="2000px" viewBox="0 0 2000 2000" style="enable-background:new 0 0 2000 2000;" xml:space="preserve">
<style type="text/css">
	.st0{fill:#FFFFFF;}
	.st1{fill:#ADADAD;}
	.st2{fill:none;}
	.st3{fill:#303030;}
</style>
<g id="Layer_1">
	<path class="st0" d="M1285.39,572.59c-51.16,0-92.64-41.48-92.64-92.64V188.8l-2.54-2.54H487.76c-25.91,0-46.91,21-46.91,46.91
		v1458.17c0,25.91,21,46.91,46.91,46.91h1046.17c25.91,0,46.91-21,46.91-46.91V576.9l-4.3-4.3H1285.39z"/>
	<path class="st1" d="M1190.05,480.31c0,52.12,42.51,94.38,94.94,94.38h294.03c1.62,0,2.44-1.9,1.3-3.03L1193.18,186.8
		c-1.15-1.14-3.13-0.35-3.13,1.25V480.31z"/>
	<rect x="1868.97" y="929.78" class="st2" width="0.45" height="9.84"/>
</g>
<g id="Layer_2">
	<g>
		<path class="st3" d="M1000.31,832.28c-0.08,0-0.16,0-0.25,0l-1.09,112.43c-0.02,1.15-0.11,2.37-0.13,3.55
			c-0.14,10.96-0.13,21.92-0.44,32.88c-0.21,7.42-0.2,14.9-2.24,22.16c-2.73,9.71-9.15,15.14-19,16.91
			c-7.62,1.37-15.3,1.09-22.96,1.24c-14.5,0.28-29.01,0.46-43.52,0.69c-0.6,0.01-1.2,0.07-1.79,0.1c0.01,0.05,0.02,0.11,0.04,0.16
			c4.25,0,8.51,0,12.76,0c9.6,0.01,19.2-0.11,28.8,0.09c4.89,0.1,9.76,0.8,14.64,1.2c3.09,0.26,6.22,0.23,9.26,0.77
			c3.55,0.64,7.16,1.41,10.49,2.74c7.69,3.06,11.56,9.33,12.85,17.18c0.72,4.37,0.99,8.86,1.03,13.3
			c0.07,8.36-0.16,26.98-0.43,46.69c-11.63,32.34-43.21,46.25-62.71,44.08c-138.06-15.4-241.6-79.57-241.6-156.39
			c0-86.17,130.3-156.43,293.45-159.78c-197.78,3.33-356.14,87.47-356.14,190.77c0,105.42,164.91,190.88,368.34,190.88
			c0.08,0,0.16,0,0.25,0v-61.98c-0.08,0,0.3-53.62,0.28-53.55c0,0.01,0,0.02-0.01,0.02c0.3-17.44,0.57-33.25,0.64-40.76
			c0.04-4.44,0.31-8.92,1.03-13.3c1.29-7.85,5.16-14.12,12.85-17.18c3.34-1.33,6.94-2.1,10.49-2.74c3.03-0.54,6.17-0.52,9.26-0.77
			c4.88-0.41,9.75-1.1,14.64-1.2c9.6-0.2,19.2-0.08,28.8-0.09c4.25,0,8.51,0,12.76,0c0.01-0.05,0.02-0.11,0.04-0.16
			c-0.6-0.04-1.2-0.09-1.79-0.1c-14.5-0.23-29.01-0.41-43.52-0.69c-7.66-0.15-15.34,0.13-22.96-1.24c-9.85-1.77-16.27-7.2-19-16.91
			c-2.04-7.26-2.03-14.73-2.24-22.16c-0.31-10.95-0.3-21.92-0.44-32.88c-0.02-1.14-0.1-0.89-0.12-3.25
			c10.65-34.59,43.64-49.48,63.76-47.24c138.06,15.4,241.6,79.57,241.6,156.39c0,86.17-130.3,156.43-293.45,159.78
			c197.78-3.33,356.14-87.47,356.14-190.77C1368.65,917.74,1203.74,832.28,1000.31,832.28z"/>
	</g>
</g>
</svg>
